<?xml version="1.0" standalone="no"?>
<!DOCTYPE svg PUBLIC "-//W3C//DTD SVG 20010904//EN"
 "http://www.w3.org/TR/2001/REC-SVG-20010904/DTD/svg10.dtd">
<svg version="1.0" xmlns="http://www.w3.org/2000/svg"
 width="384.000000pt" height="256.000000pt" viewBox="0 0 384.000000 256.000000"
 preserveAspectRatio="xMidYMid meet">

<g transform="translate(0.000000,256.000000) scale(0.100000,-0.100000)"
fill="#BA5380" stroke="none">
<path d="M2442 2320 c-52 -32 -74 -76 -69 -138 2 -34 12 -63 26 -82 12 -17 17
-30 12 -30 -19 0 -70 61 -84 102 l-15 43 -1 -35 c-1 -60 17 -106 59 -144 88
-79 250 -88 420 -21 198 77 263 97 335 102 166 13 287 -59 337 -200 l19 -52
-6 55 c-9 81 -57 173 -112 215 -69 53 -135 68 -262 63 -94 -5 -120 -10 -231
-51 -209 -76 -261 -83 -336 -47 -58 28 -82 77 -62 127 7 20 25 45 39 56 33 24
107 33 148 19 45 -16 38 -4 -11 18 -59 27 -162 27 -206 0z"/>
<path d="M1939 2159 c-1 -81 -2 -83 -13 -45 l-12 39 -13 -30 c-31 -75 -5 -143
54 -143 29 0 39 6 55 33 11 17 20 43 20 57 0 31 -29 93 -64 139 l-26 35 -1
-85z"/>
<path d="M3025 2052 l-50 -16 76 -7 c80 -7 103 -15 133 -48 26 -29 15 -76 -17
-66 -12 4 -57 9 -100 12 -101 7 -134 -6 -279 -109 -125 -89 -146 -101 -227
-131 -54 -21 -75 -22 -573 -25 -285 -2 -518 -4 -519 -5 0 -1 -15 -108 -33
-237 -29 -204 -31 -236 -18 -245 77 -53 103 -80 127 -132 24 -50 27 -66 23
-132 -5 -82 -20 -120 -69 -176 l-31 -35 54 0 c48 0 69 8 159 56 57 31 124 72
149 91 72 54 279 227 276 230 -1 1 -29 -2 -62 -7 -110 -18 -271 -8 -346 23
-25 10 -3 11 126 9 176 -4 273 10 414 59 190 66 315 171 497 414 157 211 236
275 339 275 59 0 100 -21 116 -59 17 -42 5 -82 -38 -123 -48 -46 -56 -50 -185
-87 -197 -57 -282 -118 -282 -203 0 -82 96 -118 156 -59 38 39 38 75 -1 111
l-30 28 62 21 c35 11 119 32 187 46 213 45 285 82 336 176 73 133 13 305 -124
354 -56 20 -181 18 -246 -3z m-374 -486 c-159 -205 -394 -325 -693 -351 -87
-8 -110 8 -28 19 155 21 362 96 488 179 77 50 210 156 246 196 38 42 28 11
-13 -43z m-746 36 c-6 -5 -77 -17 -160 -26 -203 -24 -189 -19 -219 -84 l-25
-57 5 70 c3 39 7 76 9 82 3 9 49 13 167 16 90 1 179 4 198 5 19 1 30 -2 25 -6z"/>
<path d="M1866 1873 c-57 -56 -58 -57 -37 -19 38 68 0 61 -73 -13 l-48 -49
144 -7 c78 -4 172 -11 208 -16 87 -12 263 -12 255 0 -3 5 -31 21 -62 36 -31
14 -80 48 -109 75 l-53 50 -83 0 -83 0 -59 -57z"/>
<path d="M490 1610 c147 -206 406 -349 738 -408 l112 -19 0 213 0 214 -64 0
-64 0 -18 -120 c-10 -66 -20 -120 -24 -120 -3 0 -14 24 -23 54 -16 50 -20 54
-55 61 -147 26 -380 82 -485 115 -69 22 -128 40 -132 40 -3 0 3 -13 15 -30z"/>
<path d="M685 1609 c22 -5 108 -23 190 -39 253 -48 265 -48 233 -8 -10 11 -58
19 -198 32 -102 10 -203 19 -225 22 l-40 4 40 -11z"/>
<path d="M2306 1139 c-38 -16 -96 -52 -130 -80 -62 -52 -475 -383 -535 -429
l-32 -25 3 -82 3 -82 45 28 c94 59 155 75 280 75 129 1 179 -11 274 -69 l56
-34 0 87 -1 87 -134 110 c-74 61 -134 114 -135 118 0 11 78 -35 195 -115 l101
-68 149 0 150 0 -68 38 c-80 44 -137 97 -175 160 -23 41 -27 58 -27 127 0 68
4 89 27 133 15 29 26 52 25 51 -1 -1 -33 -14 -71 -30z"/>
<path d="M1376 566 l-139 -32 -28 -57 -29 -57 190 0 190 0 0 90 c0 107 18 102
-184 56z"/>
<path d="M2320 510 l0 -90 193 0 192 0 -3 90 -3 90 -190 0 -189 0 0 -90z"/>
</g>
</svg>
